<svg version="1.1" xmlns="http://www.w3.org/2000/svg" viewBox="0 0 1355.4012257626002 1058.705884407987" width="4066.203677287801" height="3176.117653223961">
  <!-- svg-source:excalidraw -->
  
  <defs>
    <style class="style-fonts">
      @font-face {
        font-family: "Virgil";
        src: url("https://excalidraw.com/Virgil.woff2");
      }
      @font-face {
        font-family: "Cascadia";
        src: url("https://excalidraw.com/Cascadia.woff2");
      }
      @font-face {
        font-family: "Assistant";
        src: url("https://excalidraw.com/Assistant-Regular.woff2");
      }
    </style>
    
  </defs>
  <rect x="0" y="0" width="1355.4012257626002" height="1058.705884407987" fill="#fffce8"></rect><g stroke-linecap="round" transform="translate(187.17466326260023 152.51005201753958) rotate(0 45.0625 34.322265625)"><path d="M4.57 3.97 C4.57 3.97, 4.57 3.97, 4.57 3.97 M4.57 3.97 C4.57 3.97, 4.57 3.97, 4.57 3.97 M10.08 22.01 C10.78 18.71, 18.9 15.69, 23.86 6.17 M10.08 22.01 C13.8 16.69, 17.89 13.28, 23.86 6.17 M1.16 56.66 C20.94 35.24, 39.32 15.43, 45.12 6.1 M1.16 56.66 C15.35 41.42, 25.54 25.94, 45.12 6.1 M10.62 70.18 C36.26 46.35, 52.15 20.35, 66.38 6.03 M10.62 70.18 C25.81 53.74, 39.78 36.74, 66.38 6.03 M25.97 76.9 C46.87 57.28, 66.65 33.09, 87.64 5.96 M25.97 76.9 C49.42 51.91, 71.44 24.8, 87.64 5.96 M47.23 76.83 C64.42 62.1, 83.41 42.05, 95.12 21.74 M47.23 76.83 C60.15 58.57, 78.3 42.01, 95.12 21.74 M74.4 69.97 C79.05 58.71, 86.74 53.33, 95.39 45.82 M74.4 69.97 C82.46 62.98, 90.37 55.43, 95.39 45.82" stroke="#b2f2bb" stroke-width="2" fill="none"></path><path d="M17.16 0 C29.04 4.12, 43.83 2.83, 72.96 0 M17.16 0 C32.54 0.78, 49.37 1.19, 72.96 0 M72.96 0 C84.37 -0.64, 86.19 3.23, 90.13 17.16 M72.96 0 C79.87 2.33, 88.88 7.18, 90.13 17.16 M90.13 17.16 C92.25 26.19, 89.78 30.86, 90.13 51.48 M90.13 17.16 C89.4 27.04, 88.59 31.62, 90.13 51.48 M90.13 51.48 C91.56 60.57, 84.54 72.38, 72.96 68.64 M90.13 51.48 C86.28 67.18, 88.1 66.82, 72.96 68.64 M72.96 68.64 C50.48 68.94, 29.84 72.31, 17.16 68.64 M72.96 68.64 C56.07 66.05, 33.71 66.74, 17.16 68.64 M17.16 68.64 C4.07 69.24, -0.73 66.06, 0 51.48 M17.16 68.64 C2.3 70.08, -1.66 66.17, 0 51.48 M0 51.48 C2.72 44.13, -0.04 38.64, 0 17.16 M0 51.48 C-1.73 39.8, -2.47 26.66, 0 17.16 M0 17.16 C-2.66 7.67, 4.19 2.87, 17.16 0 M0 17.16 C-3.43 8.84, 5.9 3.32, 17.16 0" stroke="#1e1e1e" stroke-width="4" fill="none"></path></g><g transform="translate(200.7171818783229 174.33231764253958) rotate(0 31.519981384277344 12.5)"><text x="31.519981384277344" y="0" font-family="Virgil, Segoe UI Emoji" font-size="20px" fill="#1e1e1e" text-anchor="middle" style="white-space: pre;" direction="ltr" dominant-baseline="text-before-edge">Array </text></g><g mask="url(#mask-IfsrZV3VnbPChINf_M-JE)" stroke-linecap="round"><g transform="translate(282.77231951260023 184.21968641142004) rotate(0 120.482421875 0.7252481308864418)"><path d="M-2.13 0.63 C37.97 1.57, 201.4 2.99, 241.81 3.08 M1.91 -1.5 C41.61 -1.13, 200.66 -1.98, 240.03 -1.04" stroke="#1e1e1e" stroke-width="4" fill="none"></path></g><g transform="translate(282.77231951260023 184.21968641142004) rotate(0 120.482421875 0.7252481308864418)"><path d="M216.93 7.94 C225.79 4.19, 232.49 -0.03, 239.9 -2.22 M216.64 7.5 C224.35 4.23, 231.83 1.73, 240.01 -0.71" stroke="#1e1e1e" stroke-width="4" fill="none"></path></g><g transform="translate(282.77231951260023 184.21968641142004) rotate(0 120.482421875 0.7252481308864418)"><path d="M217.05 -9.16 C225.71 -7.06, 232.38 -5.42, 239.9 -2.22 M216.76 -9.6 C224.42 -7.6, 231.86 -4.85, 240.01 -0.71" stroke="#1e1e1e" stroke-width="4" fill="none"></path></g></g><mask id="mask-IfsrZV3VnbPChINf_M-JE"><rect x="0" y="0" fill="#fff" width="623.7371632626002" height="285.6701826731929"></rect><rect x="350.52036638760023" y="172.94493454230647" fill="#000" width="105.46875" height="24" opacity="1"></rect></mask><g transform="translate(350.52036638760023 172.9449345423065) rotate(0 52.09117166250945 12.065807555219479)"><text x="52.734375" y="0" font-family="Cascadia, Segoe UI Emoji" font-size="20px" fill="#1e1e1e" text-anchor="middle" style="white-space: pre;" direction="ltr" dominant-baseline="text-before-edge">prototype</text></g><g stroke-linecap="round" transform="translate(526.3856007626002 139.55302076753958) rotate(0 105.826171875 37.3671875)"><path d="M2.49 7.46 C2.49 7.46, 2.49 7.46, 2.49 7.46 M2.49 7.46 C2.49 7.46, 2.49 7.46, 2.49 7.46 M0.13 34.56 C12.95 23.53, 13.87 16.15, 29.65 0.6 M0.13 34.56 C8.83 21.64, 19.42 10.88, 29.65 0.6 M0.39 58.64 C19.66 40.24, 31.32 21.62, 50.91 0.53 M0.39 58.64 C17.47 39.57, 33.41 19.39, 50.91 0.53 M9.19 72.91 C28.5 44.97, 48.63 21.93, 72.17 0.46 M9.19 72.91 C34.21 45.31, 57.09 17.01, 72.17 0.46 M29.14 74.35 C47.06 49.78, 66.42 30.21, 92.78 1.15 M29.14 74.35 C49.21 52, 64.43 33.13, 92.78 1.15 M50.4 74.29 C64.2 60.3, 77.56 39.49, 114.04 1.08 M50.4 74.29 C65.72 57.6, 80.47 38.7, 114.04 1.08 M71.66 74.22 C93.12 45.3, 122.43 21.88, 135.3 1.01 M71.66 74.22 C87.6 59.09, 102.28 39.28, 135.3 1.01 M92.92 74.15 C106.68 51.39, 124.33 39.11, 156.56 0.94 M92.92 74.15 C109.07 54.36, 124.64 33.99, 156.56 0.94 M113.52 74.83 C136.07 47.05, 162.9 23.04, 177.16 1.63 M113.52 74.83 C138.55 46.28, 160.04 18.75, 177.16 1.63 M134.78 74.76 C157.35 48.75, 186.09 22.19, 198.42 1.56 M134.78 74.76 C157.54 49.18, 180.15 25.44, 198.42 1.56 M156.04 74.69 C169.27 56.82, 182.1 40.95, 210.5 12.05 M156.04 74.69 C173.29 53.06, 195.41 29.31, 210.5 12.05 M176.65 75.38 C191.55 57.59, 203.63 46.33, 211.42 35.38 M176.65 75.38 C185.06 68.01, 191.92 56.36, 211.42 35.38 M199.87 73.05 C201.9 68.57, 207.73 63.67, 211.03 60.22 M199.87 73.05 C201.93 69.7, 207.6 64.57, 211.03 60.22" stroke="#b2f2bb" stroke-width="2" fill="none"></path><path d="M18.68 0 C57.51 3.24, 88.57 -3.62, 192.97 0 M18.68 0 C79.34 3.42, 137.05 0.91, 192.97 0 M192.97 0 C203.35 -3.39, 211.05 6.78, 211.65 18.68 M192.97 0 C201.91 -2.68, 211.13 4.3, 211.65 18.68 M211.65 18.68 C215.63 33.67, 213.01 47.81, 211.65 56.05 M211.65 18.68 C213.1 31.2, 211.82 42.67, 211.65 56.05 M211.65 56.05 C210.42 71.75, 208.33 74.79, 192.97 74.73 M211.65 56.05 C215.15 72.6, 202.44 70.86, 192.97 74.73 M192.97 74.73 C130.92 75.1, 70.15 71.03, 18.68 74.73 M192.97 74.73 C153.33 76.02, 112.3 73.73, 18.68 74.73 M18.68 74.73 C3.97 73.59, -1.84 67.57, 0 56.05 M18.68 74.73 C5.76 76.63, 3.44 64.48, 0 56.05 M0 56.05 C-2.2 52.55, -1.24 38.36, 0 18.68 M0 56.05 C-1.1 43.43, 0.76 31.61, 0 18.68 M0 18.68 C-0.51 9.41, 2.4 -1.3, 18.68 0 M0 18.68 C0.53 8.47, 3.39 -4.19, 18.68 0" stroke="#1e1e1e" stroke-width="4" fill="none"></path></g><g transform="translate(556.2518498470729 164.42020826753958) rotate(0 75.95992279052734 12.5)"><text x="75.95992279052734" y="0" font-family="Virgil, Segoe UI Emoji" font-size="20px" fill="#1e1e1e" text-anchor="middle" style="white-space: pre;" direction="ltr" dominant-baseline="text-before-edge">Array.prototype</text></g><g stroke-linecap="round" transform="translate(236.82840867222194 10) rotate(0 47.06640625 34.69140625)"><path d="M4.63 18.6 C4.63 18.6, 4.63 18.6, 4.63 18.6 M4.63 18.6 C4.63 18.6, 4.63 18.6, 4.63 18.6 M4.66 45.99 C11.55 33.84, 22.97 22.7, 42.64 3.16 M4.08 44.79 C12.56 35.22, 19.2 25.74, 41.49 0.69 M16.29 54.26 C27.73 41.58, 40.27 27.89, 60.06 4.6 M12.72 57.05 C28.62 41.95, 42.77 23.76, 61.28 4.47 M27.33 61.87 C48.2 42.24, 65.02 22.34, 76.92 12.44 M29.32 66.59 C46.63 45.37, 62.45 25.57, 73.92 8.48 M49.12 66.11 C59.61 52.15, 73.06 34.06, 86.03 19.01 M47.87 68.06 C54.15 56.58, 63.57 43.74, 86.75 19.48 M72.22 63.45 C79.77 53.97, 79.55 48.98, 97.03 35.14 M72.83 62.02 C81.15 54.16, 86.3 45.67, 93.93 38.63" stroke="#b2f2bb" stroke-width="2" fill="none"></path><path d="M46.42 -1.32 C54.28 -1.36, 65.45 3.93, 72.6 7.83 C79.74 11.72, 85.92 16.57, 89.29 22.05 C92.65 27.52, 93.94 34.74, 92.78 40.68 C91.62 46.62, 87.59 53.33, 82.32 57.7 C77.06 62.07, 69.53 65.36, 61.2 66.91 C52.87 68.46, 40.4 68.52, 32.32 66.99 C24.23 65.47, 18.16 62.36, 12.68 57.76 C7.21 53.16, 0.83 45.93, -0.51 39.4 C-1.86 32.87, 0.81 24.17, 4.62 18.6 C8.44 13.04, 13.75 8.71, 22.37 6.01 C31 3.32, 49.01 3.08, 56.4 2.44 C63.78 1.8, 66.39 1.6, 66.71 2.19 M24.95 1.6 C32.2 -1.29, 43.03 -0.51, 51.38 0.42 C59.73 1.35, 68.53 3.62, 75.07 7.18 C81.62 10.73, 88.06 16.44, 90.67 21.75 C93.29 27.07, 92.81 33.07, 90.77 39.09 C88.73 45.12, 83.51 53.46, 78.41 57.9 C73.32 62.34, 67.96 64.41, 60.22 65.74 C52.48 67.07, 40.15 67.61, 31.98 65.89 C23.81 64.18, 16.98 60.04, 11.21 55.45 C5.45 50.85, -1.52 44.35, -2.62 38.31 C-3.73 32.26, 0.23 25.09, 4.58 19.17 C8.93 13.25, 20.02 5.28, 23.48 2.79 C26.94 0.3, 24.39 3.64, 25.33 4.22" stroke="#1e1e1e" stroke-width="4" fill="none"></path></g><g transform="translate(274.20384386405124 32.16087764172762) rotate(0 9.909996032714844 12.5)"><text x="9.909996032714844" y="0" font-family="Virgil, Segoe UI Emoji" font-size="20px" fill="#1e1e1e" text-anchor="middle" style="white-space: pre;" direction="ltr" dominant-baseline="text-before-edge">[]</text></g><g mask="url(#mask-YMhv5No3cbmdDhTLg6tis)" stroke-linecap="round"><g transform="translate(333.89629440249496 43.980979198821785) rotate(0 101.04604749076589 45.84322084546952)"><path d="M1.64 -0.38 C35.4 15.11, 167.97 77.47, 201.64 93.11 M-0.91 -3.06 C32.51 11.6, 165.22 73.55, 199.15 88.87" stroke="#2f9e44" stroke-width="4" fill="none"></path></g><g transform="translate(333.89629440249496 43.980979198821785) rotate(0 101.04604749076589 45.84322084546952)"><path d="M173.97 86.5 C181.92 88.33, 188.8 87.24, 200.42 88.67 M174.82 86.23 C179.99 88.01, 185.82 87.87, 199.45 89.66" stroke="#2f9e44" stroke-width="4" fill="none"></path></g><g transform="translate(333.89629440249496 43.980979198821785) rotate(0 101.04604749076589 45.84322084546952)"><path d="M181.11 70.96 C187.16 76.99, 192.13 80.05, 200.42 88.67 M181.97 70.69 C185.69 75.8, 189.97 79.04, 199.45 89.66" stroke="#2f9e44" stroke-width="4" fill="none"></path></g></g><mask id="mask-YMhv5No3cbmdDhTLg6tis"><rect x="0" y="0" fill="#fff" width="635.9883893840267" height="235.66742088976082"></rect><rect x="382.20796689326085" y="77.8242000442913" fill="#000" width="105.46875" height="24" opacity="1"></rect></mask><g transform="translate(382.20796689326096 77.8242000442913) rotate(0 52.05107409082353 11.181813142672183)"><text x="52.734375" y="0" font-family="Cascadia, Segoe UI Emoji" font-size="20px" fill="#2f9e44" text-anchor="middle" style="white-space: pre;" direction="ltr" dominant-baseline="text-before-edge">__proto__</text></g><g stroke-linecap="round" transform="translate(203.0769446772532 984.2527594079869) rotate(0 78.22070312499994 32.2265625)"><path d="M6.02 2.58 C6.02 2.58, 6.02 2.58, 6.02 2.58 M6.02 2.58 C6.02 2.58, 6.02 2.58, 6.02 2.58 M1.04 32.7 C11.47 24.2, 19.5 9.63, 29.25 0.25 M1.04 32.7 C5.88 23.47, 14.94 16.96, 29.25 0.25 M1.96 56.03 C13.95 40.29, 26.2 27.63, 50.51 0.18 M1.96 56.03 C17.13 35.09, 37 17.47, 50.51 0.18 M16 64.26 C37.99 38.09, 59.28 17.15, 71.77 0.11 M16 64.26 C28.99 52.33, 40.67 39.03, 71.77 0.11 M37.26 64.19 C56.67 39.83, 77.65 20.27, 92.37 0.8 M37.26 64.19 C56.03 41.33, 79.18 16.91, 92.37 0.8 M58.52 64.12 C67.7 48.89, 78.66 34.94, 113.63 0.73 M58.52 64.12 C77.88 40.43, 99.02 14.28, 113.63 0.73 M79.13 64.81 C90.87 52.78, 99.37 41.08, 134.89 0.66 M79.13 64.81 C94.49 45.81, 113.45 25.9, 134.89 0.66 M100.39 64.74 C116.03 48.49, 123.67 29.47, 152.87 4.36 M100.39 64.74 C113.41 48.24, 129.54 34.63, 152.87 4.36 M121.65 64.67 C137.9 51.26, 144.52 37.2, 156.42 24.67 M121.65 64.67 C131.06 52.05, 144.31 36.4, 156.42 24.67 M143.56 63.85 C148.64 62.12, 150.48 57.23, 156.03 49.51 M143.56 63.85 C147.5 57.06, 154.69 51.48, 156.03 49.51" stroke="#b2f2bb" stroke-width="2" fill="none"></path><path d="M16.11 0 C42.88 -0.72, 79.03 -0.1, 140.33 0 M16.11 0 C46.49 2.39, 74.62 1.19, 140.33 0 M140.33 0 C149.56 3.57, 158.07 3.53, 156.44 16.11 M140.33 0 C155.21 1.42, 156.27 9.83, 156.44 16.11 M156.44 16.11 C153.72 23.74, 155.12 39.67, 156.44 48.34 M156.44 16.11 C158.09 27.25, 157 35.37, 156.44 48.34 M156.44 48.34 C158.16 59.07, 152.15 60.65, 140.33 64.45 M156.44 48.34 C160.82 63.12, 152.09 68.78, 140.33 64.45 M140.33 64.45 C106.56 65.94, 71.93 64.5, 16.11 64.45 M140.33 64.45 C113.19 64.76, 85.99 65.7, 16.11 64.45 M16.11 64.45 C1.8 67.58, 0.86 61.88, 0 48.34 M16.11 64.45 C5.83 61.91, 0.01 56.98, 0 48.34 M0 48.34 C-2.74 43.05, 1.65 38.61, 0 16.11 M0 48.34 C-0.18 35.47, 0.13 24.85, 0 16.11 M0 16.11 C3.12 5.07, 7.27 0.55, 16.11 0 M0 16.11 C2.48 4.25, 6.99 -1.27, 16.11 0" stroke="#1e1e1e" stroke-width="4" fill="none"></path></g><g transform="translate(210.9851478022532 1004.4793219079869) rotate(0 70.3125 12)"><text x="70.3125" y="0" font-family="Cascadia, Segoe UI Emoji" font-size="20px" fill="#1e1e1e" text-anchor="middle" style="white-space: pre;" direction="ltr" dominant-baseline="text-before-edge">new Person()</text></g><g stroke-linecap="round" transform="translate(45.5788114057998 740.6242195363088) rotate(0 62.994140625 33.287109375)"><path d="M4.43 3.85 C4.43 3.85, 4.43 3.85, 4.43 3.85 M4.43 3.85 C4.43 3.85, 4.43 3.85, 4.43 3.85 M0.76 32.46 C9.38 23.33, 19.59 15.07, 28.97 0.01 M0.76 32.46 C8.05 23.82, 13.5 17.26, 28.97 0.01 M1.68 55.79 C22.36 34.53, 41.01 13.31, 50.23 -0.06 M1.68 55.79 C15.47 40.63, 29.56 25.79, 50.23 -0.06 M13.76 66.29 C32.45 46.03, 40.57 34.65, 71.49 -0.13 M13.76 66.29 C33.83 44.58, 50.56 24.17, 71.49 -0.13 M34.36 66.97 C49.84 48.49, 60.87 34.97, 92.1 0.56 M34.36 66.97 C52.39 43.96, 71.03 25.84, 92.1 0.56 M55.62 66.9 C71.1 48.68, 90.79 30.22, 112.7 1.24 M55.62 66.9 C75.46 40.51, 99.78 16.13, 112.7 1.24 M76.88 66.83 C97.65 52.59, 106.27 28.64, 124.77 11.74 M76.88 66.83 C97.38 47.36, 111.95 26.85, 124.77 11.74 M98.14 66.76 C106.01 62.79, 113.69 53.23, 126.35 34.31 M98.14 66.76 C106.51 56.96, 110.67 49, 126.35 34.31" stroke="#b2f2bb" stroke-width="2" fill="none"></path><path d="M16.64 0 C44.1 4.87, 75.36 3.99, 109.34 0 M16.64 0 C38.8 -1.15, 64.65 1.89, 109.34 0 M109.34 0 C118.63 -1, 128.67 8.44, 125.99 16.64 M109.34 0 C124.35 -1.27, 126.71 9.09, 125.99 16.64 M125.99 16.64 C123.85 31.47, 128.78 38.18, 125.99 49.93 M125.99 16.64 C125.32 27.58, 125.83 40.23, 125.99 49.93 M125.99 49.93 C128.89 62.57, 124.3 64.11, 109.34 66.57 M125.99 49.93 C129.9 65.31, 121.67 65.05, 109.34 66.57 M109.34 66.57 C86.32 64.33, 70.03 68.27, 16.64 66.57 M109.34 66.57 C84.8 69.71, 61.14 69.18, 16.64 66.57 M16.64 66.57 C7.14 68.14, 1.45 57.39, 0 49.93 M16.64 66.57 C2.48 70.74, 1.75 59.76, 0 49.93 M0 49.93 C-3.3 35.48, -0.5 27.55, 0 16.64 M0 49.93 C-1.04 36.74, 1.75 26.13, 0 16.64 M0 16.64 C1.85 4.4, 8.94 2.57, 16.64 0 M0 16.64 C-2.31 6.31, 5.72 0.26, 16.64 0" stroke="#1e1e1e" stroke-width="4" fill="none"></path></g><g transform="translate(55.8385770307998 749.9113289113088) rotate(0 52.734375 24)"><text x="52.734375" y="0" font-family="Cascadia, Segoe UI Emoji" font-size="20px" fill="#1e1e1e" text-anchor="middle" style="white-space: pre;" direction="ltr" dominant-baseline="text-before-edge">function </text><text x="52.734375" y="24" font-family="Cascadia, Segoe UI Emoji" font-size="20px" fill="#1e1e1e" text-anchor="middle" style="white-space: pre;" direction="ltr" dominant-baseline="text-before-edge">Persion</text></g><g mask="url(#mask-EE4ucCcSL855BzF106oMv)" stroke-linecap="round"><g transform="translate(179.8561551557998 778.1506565187291) rotate(0 125.71615968797579 1.1056786421502238)"><path d="M-0.38 -0.06 C41.89 0.02, 210.12 2.46, 252.04 2.64 M-4.03 -2.55 C38.06 -2.16, 207.93 5.5, 250.13 6.5" stroke="#1e1e1e" stroke-width="4" fill="none"></path></g><g transform="translate(179.8561551557998 778.1506565187291) rotate(0 125.71615968797579 1.1056786421502238)"><path d="M226.31 14.65 C232.4 12.14, 237.04 10.61, 250.12 6.73 M226.77 14.05 C233.96 10.68, 241.74 8.79, 249.95 7.33" stroke="#1e1e1e" stroke-width="4" fill="none"></path></g><g transform="translate(179.8561551557998 778.1506565187291) rotate(0 125.71615968797579 1.1056786421502238)"><path d="M226.91 -2.44 C232.99 -0.78, 237.48 1.86, 250.12 6.73 M227.38 -3.04 C234.36 -0.7, 241.93 3.1, 249.95 7.33" stroke="#1e1e1e" stroke-width="4" fill="none"></path></g></g><mask id="mask-EE4ucCcSL855BzF106oMv"><rect x="0" y="0" fill="#fff" width="531.2884745317514" height="880.3620138030295"></rect><rect x="252.83793984377553" y="767.2563351608792" fill="#000" width="105.46875" height="24" opacity="1"></rect></mask><g transform="translate(252.83793984377553 767.2563351608793) rotate(0 51.02191116325562 12.869403922408821)"><text x="52.734375" y="0" font-family="Cascadia, Segoe UI Emoji" font-size="20px" fill="#1e1e1e" text-anchor="middle" style="white-space: pre;" direction="ltr" dominant-baseline="text-before-edge">prototype</text></g><g stroke-linecap="round" transform="translate(433.17519328175104 758.846459303527) rotate(0 104.07031249999994 31.228515625)"><path d="M4.16 3.61 C4.16 3.61, 4.16 3.61, 4.16 3.61 M4.16 3.61 C4.16 3.61, 4.16 3.61, 4.16 3.61 M0.49 32.22 C9.68 18.16, 16.21 8.08, 28.04 0.53 M0.49 32.22 C8.11 20.16, 16.64 10.63, 28.04 0.53 M2.06 54.8 C17.01 33.75, 34.3 15.84, 49.3 0.46 M2.06 54.8 C14.72 39.58, 27.62 25.28, 49.3 0.46 M17.42 61.52 C32.48 41, 52.22 21.67, 70.56 0.39 M17.42 61.52 C38.55 38.68, 57.31 14.54, 70.56 0.39 M38.02 62.2 C51.09 52.79, 59.72 39.45, 91.17 1.07 M38.02 62.2 C56.37 40.94, 71.46 19.31, 91.17 1.07 M59.28 62.14 C75.97 46.53, 86.37 37.29, 112.43 1 M59.28 62.14 C75.98 44.34, 90.88 23.43, 112.43 1 M80.54 62.07 C101.42 36.44, 123.05 19.89, 133.69 0.93 M80.54 62.07 C94.69 48.47, 107.19 32.78, 133.69 0.93 M101.8 62 C123.44 44.43, 135.14 21.44, 154.95 0.87 M101.8 62 C115.41 45.1, 130.38 31.47, 154.95 0.87 M122.41 62.68 C142.54 41.53, 167.23 18.34, 175.55 1.55 M122.41 62.68 C131.66 47.68, 145.23 35.54, 175.55 1.55 M143.67 62.61 C163.44 44.08, 180.95 26.72, 196.81 1.48 M143.67 62.61 C160.32 44.7, 175.33 25.29, 196.81 1.48 M164.93 62.55 C180.32 42.83, 202.3 23.17, 208.23 12.73 M164.93 62.55 C181.66 47.68, 193.79 29.83, 208.23 12.73 M186.19 62.48 C193.05 58.95, 193.81 47.97, 207.84 37.57 M186.19 62.48 C192.19 54.77, 194.36 50.85, 207.84 37.57" stroke="#b2f2bb" stroke-width="2" fill="none"></path><path d="M15.61 0 C74.45 0.03, 123.85 -0.68, 192.53 0 M15.61 0 C57.51 0.67, 98.45 0.53, 192.53 0 M192.53 0 C206.53 1.95, 205.88 3.05, 208.14 15.61 M192.53 0 C203.24 3.3, 204.96 9.2, 208.14 15.61 M208.14 15.61 C205.38 30.37, 205.06 42.28, 208.14 46.84 M208.14 15.61 C209.16 24.17, 209.77 35.62, 208.14 46.84 M208.14 46.84 C206.03 54.25, 200.53 61.68, 192.53 62.46 M208.14 46.84 C207.11 55.32, 207.53 61.89, 192.53 62.46 M192.53 62.46 C134.92 65.99, 66.53 62.79, 15.61 62.46 M192.53 62.46 C144.77 65.21, 95.81 65.87, 15.61 62.46 M15.61 62.46 C3.81 58.96, -1.63 56.53, 0 46.84 M15.61 62.46 C5.8 58.17, 0.77 58.31, 0 46.84 M0 46.84 C0.74 36.43, -3.54 33.3, 0 15.61 M0 46.84 C2.04 39.51, 0.08 35.23, 0 15.61 M0 15.61 C0.13 8.51, 8.03 0.73, 15.61 0 M0 15.61 C3.66 9.56, 6.72 -0.41, 15.61 0" stroke="#1e1e1e" stroke-width="4" fill="none"></path></g><g transform="translate(443.49550578175104 778.074974928527) rotate(0 93.75 12)"><text x="93.75" y="0" font-family="Cascadia, Segoe UI Emoji" font-size="20px" fill="#1e1e1e" text-anchor="middle" style="white-space: pre;" direction="ltr" dominant-baseline="text-before-edge">Person.prototype</text></g><g mask="url(#mask-JA_1Utk_zkaizNYxvRKD1)" stroke-linecap="round"><g transform="translate(274.0939167066431 975.6082281579869) rotate(0 120.08809225792737 -75.87307192722994)"><path d="M-1.88 -1.07 C38.21 -26.32, 197.9 -126.51, 238.41 -151.79 M2.29 -4.12 C43.49 -28.87, 204.25 -123.84, 243.86 -148.18" stroke="#2f9e44" stroke-width="4" fill="none"></path></g><g transform="translate(274.0939167066431 975.6082281579869) rotate(0 120.08809225792737 -75.87307192722994)"><path d="M227.36 -130.01 C231.61 -132.23, 234.43 -139.02, 245.34 -146.86 M227.21 -127.86 C233.84 -135.23, 238.55 -143.04, 243.78 -148.64" stroke="#2f9e44" stroke-width="4" fill="none"></path></g><g transform="translate(274.0939167066431 975.6082281579869) rotate(0 120.08809225792737 -75.87307192722994)"><path d="M218.55 -144.67 C224.75 -143.57, 229.53 -147.1, 245.34 -146.86 M218.4 -142.52 C228.24 -144.6, 236.08 -147.2, 243.78 -148.64" stroke="#2f9e44" stroke-width="4" fill="none"></path></g></g><mask id="mask-JA_1Utk_zkaizNYxvRKD1"><rect x="0" y="0" fill="#fff" width="614.2701012224978" height="1227.3543720124467"></rect><rect x="341.4476339645705" y="887.735156230757" fill="#000" width="105.46875" height="24" opacity="1"></rect></mask><g transform="translate(341.4476339645705 887.735156230757) rotate(0 53.63333564035588 11.445514543354477)"><text x="52.734375" y="0" font-family="Cascadia, Segoe UI Emoji" font-size="20px" fill="#2f9e44" text-anchor="middle" style="white-space: pre;" direction="ltr" dominant-baseline="text-before-edge">__proto__</text></g><g stroke-linecap="round" transform="translate(10 508.6183921382244) rotate(0 66.162109375 36.4921875)"><path d="M2.37 7.36 C2.37 7.36, 2.37 7.36, 2.37 7.36 M2.37 7.36 C2.37 7.36, 2.37 7.36, 2.37 7.36 M10.51 22.38 C14.53 18.73, 21.26 12.94, 24.94 5.78 M10.51 22.38 C13.64 18.75, 17.67 13.9, 24.94 5.78 M10.12 47.22 C22.69 31.84, 30.92 22.17, 46.2 5.71 M10.12 47.22 C22.69 31.62, 38.32 15.28, 46.2 5.71 M9.73 72.06 C28.48 47.64, 46.7 27.57, 67.46 5.64 M9.73 72.06 C29.25 49.05, 49.94 24.26, 67.46 5.64 M25.08 78.78 C40.47 56.74, 66.33 32.48, 88.72 5.57 M25.08 78.78 C50.23 51, 73.68 22.51, 88.72 5.57 M46.34 78.71 C66.18 50.51, 89.15 27.74, 114.57 0.22 M46.34 78.71 C74.32 48.12, 99 21.64, 114.57 0.22 M67.6 78.64 C81.28 59.37, 97.09 39.68, 129.93 6.94 M67.6 78.64 C84.87 60.01, 100.87 40.03, 129.93 6.94 M88.86 78.57 C96.71 64.26, 108.12 58.09, 139.38 20.46 M88.86 78.57 C106.24 59.74, 128.14 36.84, 139.38 20.46 M114.71 73.22 C123.23 69.46, 123.88 56.45, 139.64 44.54 M114.71 73.22 C123.07 61.89, 134.14 50.92, 139.64 44.54" stroke="#b2f2bb" stroke-width="2" fill="none"></path><path d="M18.25 0 C40.35 0.74, 61.17 4.94, 114.08 0 M18.25 0 C42.53 -0.33, 70.29 -1.07, 114.08 0 M114.08 0 C125.33 0.83, 131.72 4.08, 132.32 18.25 M114.08 0 C126.15 -1.11, 136.04 8.61, 132.32 18.25 M132.32 18.25 C130.88 28.74, 131.99 46.81, 132.32 54.74 M132.32 18.25 C134.11 26.73, 133.56 38.08, 132.32 54.74 M132.32 54.74 C132.05 70.36, 127.11 69.92, 114.08 72.98 M132.32 54.74 C130.82 66.63, 126.24 72.67, 114.08 72.98 M114.08 72.98 C81.52 73.85, 41.08 75.71, 18.25 72.98 M114.08 72.98 C78.43 73, 44.58 71.33, 18.25 72.98 M18.25 72.98 C4.68 69.16, -2.96 70.04, 0 54.74 M18.25 72.98 C4.59 75.41, -4.46 63.32, 0 54.74 M0 54.74 C-0.15 42.91, -3.23 36.62, 0 18.25 M0 54.74 C0.38 46.85, -2.16 37.33, 0 18.25 M0 18.25 C2.61 3, 6.27 0.95, 18.25 0 M0 18.25 C-2.2 6.44, 1.6 1.52, 18.25 0" stroke="#1e1e1e" stroke-width="4" fill="none"></path></g><g transform="translate(29.287109375 533.1105796382244) rotate(0 46.875 12)"><text x="46.875" y="0" font-family="Cascadia, Segoe UI Emoji" font-size="20px" fill="#1e1e1e" text-anchor="middle" style="white-space: pre;" direction="ltr" dominant-baseline="text-before-edge">Function</text></g><g stroke-linecap="round" transform="translate(374.87890625 513.9855796382244) rotate(0 110.6328125 35.421875)"><path d="M4.71 4.1 C4.71 4.1, 4.71 4.1, 4.71 4.1 M4.71 4.1 C4.71 4.1, 4.71 4.1, 4.71 4.1 M0.39 33.46 C5.37 20.97, 21.37 11.82, 28.6 1.01 M0.39 33.46 C7.27 23.32, 17 15.65, 28.6 1.01 M0.65 57.54 C16.91 39.7, 29.15 28.44, 49.86 0.94 M0.65 57.54 C12.55 42.66, 23.04 32.26, 49.86 0.94 M10.76 70.31 C19.18 54.72, 33.19 41.73, 71.12 0.87 M10.76 70.31 C30.2 46.56, 54.51 22.35, 71.12 0.87 M32.02 70.24 C48.75 51.19, 70.73 26.78, 92.38 0.8 M32.02 70.24 C45.47 54.87, 56.91 42.64, 92.38 0.8 M52.63 70.92 C65.6 53.81, 87.97 33.57, 112.98 1.49 M52.63 70.92 C70.39 50.36, 87.2 32.01, 112.98 1.49 M73.89 70.85 C91.09 55.43, 100.79 35.22, 134.24 1.42 M73.89 70.85 C96.21 46.68, 117.06 23.33, 134.24 1.42 M95.15 70.78 C106.14 60.28, 124.15 43.47, 155.5 1.35 M95.15 70.78 C116.84 44.88, 138.89 17.15, 155.5 1.35 M116.41 70.72 C132.55 49.72, 149.74 37.14, 176.76 1.28 M116.41 70.72 C137.16 44.54, 161.97 22.28, 176.76 1.28 M137.01 71.4 C161.14 49.43, 182.28 21.39, 197.37 1.97 M137.01 71.4 C161.63 42.96, 184.67 18.76, 197.37 1.97 M158.27 71.33 C173.46 50.25, 196.84 27.81, 216.66 4.16 M158.27 71.33 C175.78 46.48, 199.02 25.3, 216.66 4.16 M179.53 71.26 C187.74 59.74, 203.06 41, 221.52 22.96 M179.53 71.26 C193.65 55.39, 207.16 39.41, 221.52 22.96 M200.79 71.19 C210.63 61.9, 212.9 55.38, 221.13 47.8 M200.79 71.19 C208.22 63.74, 217.18 53.4, 221.13 47.8" stroke="#b2f2bb" stroke-width="2" fill="none"></path><path d="M17.71 0 C80.67 0.7, 150.32 -0.8, 203.55 0 M17.71 0 C62.37 -0.2, 109.02 0.67, 203.55 0 M203.55 0 C214.28 3.78, 224.51 5.32, 221.27 17.71 M203.55 0 C214.34 2.04, 220.4 8.12, 221.27 17.71 M221.27 17.71 C219.03 25.83, 220.99 42.88, 221.27 53.13 M221.27 17.71 C223.02 30.13, 220.74 42.1, 221.27 53.13 M221.27 53.13 C223.9 61.31, 217.86 69.19, 203.55 70.84 M221.27 53.13 C217.12 64.32, 214.6 68.9, 203.55 70.84 M203.55 70.84 C133.78 73.78, 62.26 77.38, 17.71 70.84 M203.55 70.84 C163.25 68.54, 121.46 67.78, 17.71 70.84 M17.71 70.84 C3.47 67.81, 2.1 61.72, 0 53.13 M17.71 70.84 C5.07 74.67, 4.4 66.33, 0 53.13 M0 53.13 C-2.79 45.91, 0.73 33.02, 0 17.71 M0 53.13 C-0.78 41.2, -0.47 27.57, 0 17.71 M0 17.71 C0.19 4.86, 3.81 -3.5, 17.71 0 M0 17.71 C3.97 9.39, 2.21 -0.36, 17.71 0" stroke="#1e1e1e" stroke-width="4" fill="none"></path></g><g transform="translate(385.90234375 537.4074546382244) rotate(0 99.609375 12)"><text x="99.609375" y="0" font-family="Cascadia, Segoe UI Emoji" font-size="20px" fill="#1e1e1e" text-anchor="middle" style="white-space: pre;" direction="ltr" dominant-baseline="text-before-edge">Fuction.prototype</text></g><g mask="url(#mask-O6qUjZQdP4mwozrs6qekY)" stroke-linecap="round"><g transform="translate(154.30078125 522.2425138728574) rotate(0 107.36718750000006 0.7796933894542804)"><path d="M1.29 -2.25 C37.28 -2.3, 180.73 0.45, 216.35 1.48 M-1.46 2.69 C34.28 2.97, 179.19 5.56, 214.99 5.06" stroke="#1e1e1e" stroke-width="4" fill="none"></path></g><g transform="translate(154.30078125 522.2425138728574) rotate(0 107.36718750000006 0.7796933894542804)"><path d="M189.85 14.67 C198.73 10.94, 207.85 6.11, 213.04 3.67 M191.38 14.33 C197.94 10.7, 202.58 9.25, 214.42 4.44" stroke="#1e1e1e" stroke-width="4" fill="none"></path></g><g transform="translate(154.30078125 522.2425138728574) rotate(0 107.36718750000006 0.7796933894542804)"><path d="M189.93 -2.44 C198.88 -0.8, 207.99 -0.27, 213.04 3.67 M191.45 -2.77 C198.1 -2.31, 202.73 0.31, 214.42 4.44" stroke="#1e1e1e" stroke-width="4" fill="none"></path></g></g><mask id="mask-O6qUjZQdP4mwozrs6qekY"><rect x="0" y="0" fill="#fff" width="469.0351562500001" height="623.801900651766"></rect><rect x="208.93359375" y="511.0222072623118" fill="#000" width="105.46875" height="24" opacity="1"></rect></mask><g transform="translate(208.93359375 511.02220726231167) rotate(0 52.813969465121716 12.654572634429883)"><text x="52.734375" y="0" font-family="Cascadia, Segoe UI Emoji" font-size="20px" fill="#1e1e1e" text-anchor="middle" style="white-space: pre;" direction="ltr" dominant-baseline="text-before-edge">prototype</text></g><g mask="url(#mask-3G11JRQXjWF1JNVqUjgqF)" stroke-linecap="round"><g transform="translate(181.8115994917373 745.341719610076) rotate(0 140.0897478739147 -79.75619498592579)"><path d="M-1.27 2.32 C46.18 -23.59, 235.99 -129.92, 282.66 -157.15 M3.24 1.1 C50.72 -25.39, 236.29 -134.23, 281.77 -160.87" stroke="#2f9e44" stroke-width="4" fill="none"></path></g><g transform="translate(181.8115994917373 745.341719610076) rotate(0 140.0897478739147 -79.75619498592579)"><path d="M267.47 -139.85 C271.28 -147, 272.15 -151.31, 282.46 -159.16 M266.41 -140.93 C268.8 -145.76, 272.75 -149.5, 281.73 -160.68" stroke="#2f9e44" stroke-width="4" fill="none"></path></g><g transform="translate(181.8115994917373 745.341719610076) rotate(0 140.0897478739147 -79.75619498592579)"><path d="M258.83 -154.61 C264.53 -158.33, 267.38 -159.26, 282.46 -159.16 M257.77 -155.69 C262.2 -157.2, 268.11 -157.59, 281.73 -160.68" stroke="#2f9e44" stroke-width="4" fill="none"></path></g></g><mask id="mask-3G11JRQXjWF1JNVqUjgqF"><rect x="0" y="0" fill="#fff" width="561.9910952395667" height="1004.8541095819276"></rect><rect x="269.166972365652" y="653.5855246241501" fill="#000" width="105.46875" height="24" opacity="1"></rect></mask><g transform="translate(269.166972365652 653.5855246241504) rotate(0 53.341802652180206 12.476725569143866)"><text x="52.734375" y="0" font-family="Cascadia, Segoe UI Emoji" font-size="20px" fill="#2f9e44" text-anchor="middle" style="white-space: pre;" direction="ltr" dominant-baseline="text-before-edge">__proto__</text></g><g mask="url(#mask-yFZNNy8aDMDNq_KnArL1i)" stroke-linecap="round"><g transform="translate(154.015625 573.6198569819744) rotate(0 105.453125 0.8866682298927344)"><path d="M-0.36 1.97 C34.66 2.32, 174.93 0.43, 209.7 0.36 M-3.99 0.56 C30.58 1.43, 170.53 2.57, 206.8 3.23" stroke="#2f9e44" stroke-width="4" fill="none"></path></g><g transform="translate(154.015625 573.6198569819744) rotate(0 105.453125 0.8866682298927344)"><path d="M184.61 10.61 C188.97 7.26, 196.54 8.78, 208.58 5.17 M183.53 11.26 C190.47 9.54, 196.58 7.18, 206.16 2.23" stroke="#2f9e44" stroke-width="4" fill="none"></path></g><g transform="translate(154.015625 573.6198569819744) rotate(0 105.453125 0.8866682298927344)"><path d="M184.83 -6.49 C189.02 -4.97, 196.53 1.43, 208.58 5.17 M183.75 -5.84 C190.62 -2.94, 196.67 -0.67, 206.16 2.23" stroke="#2f9e44" stroke-width="4" fill="none"></path></g></g><mask id="mask-yFZNNy8aDMDNq_KnArL1i"><rect x="0" y="0" fill="#fff" width="464.921875" height="675.3931934417599"></rect><rect x="206.734375" y="562.5065252118671" fill="#000" width="105.46875" height="24" opacity="1"></rect></mask><g transform="translate(206.734375 562.506525211867) rotate(0 50.133366041108985 12.907804743915676)"><text x="52.734375" y="0" font-family="Cascadia, Segoe UI Emoji" font-size="20px" fill="#2f9e44" text-anchor="middle" style="white-space: pre;" direction="ltr" dominant-baseline="text-before-edge">__proto__</text></g><g stroke-linecap="round" transform="translate(976.1941945126002 317.5409358066021) rotate(0 165.30078125 104.3671875)"><path d="M23.7 51.08 C23.7 51.08, 23.7 51.08, 23.7 51.08 M23.7 51.08 C23.7 51.08, 23.7 51.08, 23.7 51.08 M14.68 92.37 C24.39 75.5, 36.83 60.82, 60.32 31.76 M12.42 87.78 C24.91 74.65, 36.09 62.13, 62.36 30.25 M10.21 116.6 C23.93 96.72, 49.7 76.46, 98.97 21.27 M6.85 121.05 C38.16 87.53, 68.21 51.63, 95.6 18.77 M16.07 133.66 C48.35 98.4, 84.43 54.7, 120.41 20.82 M12.07 138.9 C43.83 106.57, 72.59 71.11, 115.73 17.13 M17.11 151.61 C54.62 108.81, 84.74 71.27, 140.14 13.12 M18.71 151.57 C56.16 114.03, 95.94 67.89, 142.61 12.5 M31.5 161.76 C79.62 110.57, 122.83 55.3, 167.54 7.38 M30.68 162.46 C78.58 103.72, 127.93 48.15, 168.52 5.92 M42.53 170.38 C83.37 129.06, 117.14 85.17, 187.07 10.15 M44.97 171.3 C80.44 136.45, 111.94 98, 188.55 9.59 M54.14 180.68 C93.49 142.72, 132.91 104.68, 205.9 13.44 M58.02 182.87 C105.82 126.7, 157.32 65.77, 204.95 11.9 M73.73 193.16 C115.38 144.67, 155.34 93.34, 223.66 13.7 M72.26 188.76 C132.51 122.52, 191.79 54.93, 223.88 16.76 M86.36 200.47 C141.78 127.74, 202.86 65.44, 239.09 23.56 M87.09 198.97 C127.57 154.12, 165.61 109.74, 241.67 20.64 M100.6 207.33 C168.22 131.03, 229.16 57.99, 261.18 20.32 M101.35 203.56 C132.38 166.21, 165.72 130.81, 263.66 21.44 M118.25 206.99 C157.18 164.01, 193.64 120.43, 278.07 26.94 M117.73 209.07 C176.78 143.23, 234.78 76.18, 277.17 27.92 M133.7 216.43 C184.73 161.26, 223.78 113.54, 289.77 34.06 M135.78 213.25 C169.67 179.15, 202.09 143.05, 291.14 38.29 M154.04 222.08 C206.67 152.11, 265.14 87.74, 303.91 48.07 M152.57 219.79 C206.56 155.94, 258.79 94.21, 302.71 47.29 M176.34 221.62 C205.52 184.64, 231.03 153.33, 309.8 62.88 M174.22 219.54 C206.3 179.36, 239.54 145.54, 312.21 61.18 M200.75 212.22 C226.93 178.98, 258.37 151.57, 325.32 72.42 M203.4 211.84 C249.06 158.34, 292.97 106.12, 322.43 72.75 M226.9 210.06 C262.65 161.88, 308.77 118.71, 335.33 85.05 M226.74 205.33 C255.68 175.93, 281.9 146.85, 331.09 84.22 M253.04 204.68 C280.79 174.56, 306.91 145.38, 331.51 106.68 M253.52 202.28 C273.14 177.11, 295.34 154.37, 331.88 108.79" stroke="#b2f2bb" stroke-width="2" fill="none"></path><path d="M159.02 -0.71 C175.9 -2.52, 194.75 1.99, 212.03 5.39 C229.3 8.78, 247.94 13.18, 262.68 19.68 C277.43 26.18, 290.45 34.92, 300.5 44.39 C310.54 53.87, 318.25 66.02, 322.97 76.52 C327.69 87.01, 329.49 96.42, 328.81 107.36 C328.13 118.3, 325.51 131.43, 318.91 142.17 C312.31 152.9, 301.15 162.75, 289.22 171.75 C277.29 180.75, 262.72 190.08, 247.34 196.16 C231.97 202.25, 214.5 206.09, 196.96 208.27 C179.42 210.45, 159.71 211.29, 142.09 209.26 C124.47 207.22, 106.67 201.51, 91.24 196.06 C75.81 190.61, 62.26 184.44, 49.52 176.57 C36.77 168.69, 22.72 158.92, 14.77 148.82 C6.82 138.72, 3.8 127.24, 1.81 115.98 C-0.18 104.73, -0.86 92.13, 2.83 81.28 C6.51 70.42, 14.74 60.29, 23.91 50.84 C33.08 41.39, 44.32 31.88, 57.86 24.58 C71.41 17.28, 79.23 10.66, 105.18 7.04 C131.13 3.42, 187.94 0.28, 213.56 2.86 C239.19 5.45, 259.9 20.48, 258.92 22.54 M100.86 5.15 C115.36 -0.95, 137.96 -0.14, 155.57 -0.29 C173.17 -0.45, 188.89 1.56, 206.48 4.22 C224.07 6.87, 246.31 9.17, 261.1 15.65 C275.89 22.13, 284.67 33.53, 295.22 43.08 C305.76 52.63, 318.38 62.39, 324.39 72.97 C330.39 83.55, 332.19 95.82, 331.25 106.56 C330.3 117.3, 325.43 126.69, 318.7 137.4 C311.96 148.11, 302 161.14, 290.86 170.82 C279.72 180.5, 266.28 189.14, 251.85 195.48 C237.43 201.82, 221.65 207, 204.32 208.84 C186.99 210.69, 166.03 207.74, 147.85 206.56 C129.67 205.38, 111.1 206.49, 95.25 201.76 C79.41 197.03, 65.6 186.61, 52.8 178.18 C40 169.76, 26.55 160.79, 18.48 151.22 C10.4 141.66, 6.59 131.97, 4.34 120.79 C2.09 109.61, 2.34 95.18, 5 84.15 C7.66 73.13, 12.1 64.27, 20.31 54.65 C28.52 45.03, 40.63 34.67, 54.25 26.42 C67.87 18.16, 93.8 7.45, 102.03 5.14 C110.25 2.82, 102.76 10.6, 103.58 12.53" stroke="#1e1e1e" stroke-width="4" fill="none"></path></g><g transform="translate(1047.8596724052911 410.1093772919842) rotate(0 93.75 12)"><text x="93.75" y="0" font-family="Cascadia, Segoe UI Emoji" font-size="20px" fill="#1e1e1e" text-anchor="middle" style="white-space: pre;" direction="ltr" dominant-baseline="text-before-edge">Object.prototype</text></g><g mask="url(#mask-CRSr-ifVzX-gaDPjgvvBw)" stroke-linecap="round"><g transform="translate(745.7410695126002 188.17540479441567) rotate(0 124.6524812951659 77.5038443575202)"><path d="M1.27 2.3 C42.76 27.86, 205.52 127.4, 247.11 152.89 M-1.48 1.08 C41.04 26.97, 210.43 129.13, 252.32 155.37" stroke="#2f9e44" stroke-width="4" fill="none"></path></g><g transform="translate(745.7410695126002 188.17540479441567) rotate(0 124.6524812951659 77.5038443575202)"><path d="M229.46 148.81 C232.07 152.53, 239.54 153.91, 253.03 154.17 M226.85 150.44 C236.32 151.15, 246.2 153.61, 251.71 154.46" stroke="#2f9e44" stroke-width="4" fill="none"></path></g><g transform="translate(745.7410695126002 188.17540479441567) rotate(0 124.6524812951659 77.5038443575202)"><path d="M238.4 134.23 C238.88 141.43, 244.24 146.24, 253.03 154.17 M235.79 135.86 C242.07 142.05, 248.64 149.88, 251.71 154.46" stroke="#2f9e44" stroke-width="4" fill="none"></path></g></g><mask id="mask-CRSr-ifVzX-gaDPjgvvBw"><rect x="0" y="0" fill="#fff" width="1095.046032102932" height="443.18309350945606"></rect><rect x="817.6591758077661" y="253.6792491519359" fill="#000" width="105.46875" height="24" opacity="1"></rect></mask><g transform="translate(817.6591758077661 253.6792491519359) rotate(0 53.50144921794538 12.719574439376544)"><text x="52.734375" y="0" font-family="Cascadia, Segoe UI Emoji" font-size="20px" fill="#2f9e44" text-anchor="middle" style="white-space: pre;" direction="ltr" dominant-baseline="text-before-edge">__proto__</text></g><g mask="url(#mask-DiipDRlckaz9iHjpMEvhh)" stroke-linecap="round"><g transform="translate(647.4685566578994 747.2220041940246) rotate(0 174.59035738335365 -128.69929719193715)"><path d="M1.65 -0.29 C59.18 -43.55, 289.21 -216.23, 346.86 -259.06 M-0.9 -2.92 C57.33 -45.9, 292.94 -214.47, 352.01 -256.33" stroke="#2f9e44" stroke-width="4" fill="none"></path></g><g transform="translate(647.4685566578994 747.2220041940246) rotate(0 174.59035738335365 -128.69929719193715)"><path d="M337.63 -237.39 C341.72 -244.41, 348.1 -249.3, 352.34 -254.36 M338.4 -235.57 C343.91 -242.54, 348.77 -250.39, 352.26 -256.01" stroke="#2f9e44" stroke-width="4" fill="none"></path></g><g transform="translate(647.4685566578994 747.2220041940246) rotate(0 174.59035738335365 -128.69929719193715)"><path d="M327.7 -251.31 C335.39 -253.38, 345.34 -253.26, 352.34 -254.36 M328.47 -249.5 C337.63 -251.15, 346.21 -253.78, 352.26 -256.01" stroke="#2f9e44" stroke-width="4" fill="none"></path></g></g><mask id="mask-DiipDRlckaz9iHjpMEvhh"><rect x="0" y="0" fill="#fff" width="1096.6492714246067" height="1104.6205985778988"></rect><rect x="769.324539041253" y="606.5227070020876" fill="#000" width="105.46875" height="24" opacity="1"></rect></mask><g transform="translate(769.324539041253 606.5227070020874) rotate(0 53.6946341849864 11.021690423786652)"><text x="52.734375" y="0" font-family="Cascadia, Segoe UI Emoji" font-size="20px" fill="#2f9e44" text-anchor="middle" style="white-space: pre;" direction="ltr" dominant-baseline="text-before-edge">__proto__</text></g><g mask="url(#mask-JxBNDkuCaJoQzi65Lebwa)" stroke-linecap="round"><g transform="translate(609.95703125 544.3740183114206) rotate(0 182.94799756048167 -30.710359587608195)"><path d="M1.45 -0.09 C62.08 -9.93, 302.47 -50.62, 363.56 -60.73 M-1.21 -2.6 C60.3 -13.18, 307.28 -56.25, 368.7 -65.36" stroke="#2f9e44" stroke-width="4" fill="none"></path></g><g transform="translate(609.95703125 544.3740183114206) rotate(0 182.94799756048167 -30.710359587608195)"><path d="M346.83 -54.8 C353.83 -55.33, 360.18 -60.85, 368.7 -65.33 M346.23 -54.02 C354.35 -56.06, 359.94 -60.26, 369.52 -65.53" stroke="#2f9e44" stroke-width="4" fill="none"></path></g><g transform="translate(609.95703125 544.3740183114206) rotate(0 182.94799756048167 -30.710359587608195)"><path d="M344.07 -71.68 C351.78 -67.29, 358.93 -67.88, 368.7 -65.33 M343.47 -70.9 C352.45 -67.84, 358.87 -66.94, 369.52 -65.53" stroke="#2f9e44" stroke-width="4" fill="none"></path></g></g><mask id="mask-JxBNDkuCaJoQzi65Lebwa"><rect x="0" y="0" fill="#fff" width="1075.8530263709633" height="705.794737486637"></rect><rect x="740.1706538104816" y="501.66365872381243" fill="#000" width="105.46875" height="24" opacity="1"></rect></mask><g transform="translate(740.1706538104816 501.66365872381243) rotate(0 53.53161579743045 9.988066106215115)"><text x="52.734375" y="0" font-family="Cascadia, Segoe UI Emoji" font-size="20px" fill="#2f9e44" text-anchor="middle" style="white-space: pre;" direction="ltr" dominant-baseline="text-before-edge">__proto__</text></g><g stroke-linecap="round" transform="translate(1226.1824757626002 98.06827955660208) rotate(0 59.609375 58)"><path d="M10.39 48.79 C10.39 48.79, 10.39 48.79, 10.39 48.79 M10.39 48.79 C10.39 48.79, 10.39 48.79, 10.39 48.79 M12.63 70.6 C26.4 58.73, 38.45 44.87, 67.08 7.96 M12.63 70.6 C32.85 47.69, 51.15 25.32, 67.08 7.96 M24.05 81.85 C42.23 58.91, 59.56 39.29, 79.16 18.46 M24.05 81.85 C47.09 56.84, 68.15 34.64, 79.16 18.46 M35.47 93.11 C46.51 74.54, 63.3 56.43, 90.58 29.71 M35.47 93.11 C50.01 73.83, 65.77 56.89, 90.58 29.71 M47.54 103.6 C57.21 89.34, 69.92 78.56, 101.34 41.72 M47.54 103.6 C62.78 84.79, 77.24 64.78, 101.34 41.72 M60.93 112.59 C78.27 94.66, 99.03 75.54, 112.1 53.72 M60.93 112.59 C79.24 89.63, 100.67 70.41, 112.1 53.72" stroke="#b2f2bb" stroke-width="2" fill="none"></path><path d="M75 14.75 C88.13 27.51, 99.59 36.94, 104.22 44.25 M75 14.75 C84.91 22.75, 94.09 30.36, 104.22 44.25 M104.22 44.25 C117.81 59.04, 116.29 59.02, 104.22 73.75 M104.22 44.25 C115.77 57.55, 117.01 62.48, 104.22 73.75 M104.22 73.75 C95.51 79.36, 89.92 95.12, 75 101.25 M104.22 73.75 C98.89 82.06, 88.95 84.88, 75 101.25 M75 101.25 C63.76 114.6, 56.99 115.28, 45 101.25 M75 101.25 C63.42 114.36, 61.05 118.37, 45 101.25 M45 101.25 C33.63 93.99, 27.11 84.71, 15 73.75 M45 101.25 C34.07 90.73, 21.8 78.53, 15 73.75 M15 73.75 C3.58 61.57, 2.69 58.55, 15 44.25 M15 73.75 C-3.45 59.7, 4.33 58.49, 15 44.25 M15 44.25 C28.06 34.87, 31.86 23.51, 45 14.75 M15 44.25 C22.85 38.51, 29 29.56, 45 14.75 M45 14.75 C63.32 1.93, 59.8 2.67, 75 14.75 M45 14.75 C56.14 -1.11, 64.12 2.96, 75 14.75" stroke="#1e1e1e" stroke-width="4" fill="none"></path></g><g transform="translate(1262.5496632626002 144.06827955660208) rotate(0 23.4375 12)"><text x="23.4375" y="0" font-family="Cascadia, Segoe UI Emoji" font-size="20px" fill="#1e1e1e" text-anchor="middle" style="white-space: pre;" direction="ltr" dominant-baseline="text-before-edge">null</text></g><g mask="url(#mask-Gzw17qWKpGjgoiv5WhymJ)" stroke-linecap="round"><g transform="translate(1239.0292271767935 325.04620289692963) rotate(0 12.4178816396103 -58.04458267547807)"><path d="M-0.88 0.62 C4.01 -19.18, 22.79 -97.94, 26.78 -117.3 M3.84 -1.51 C8.76 -21.07, 21.41 -95.89, 25.6 -114.32" stroke="#2f9e44" stroke-width="4" fill="none"></path></g><g transform="translate(1239.0292271767935 325.04620289692963) rotate(0 12.4178816396103 -58.04458267547807)"><path d="M29.94 -88.24 C27.69 -96.06, 28.14 -98.76, 25.21 -113.22 M28.73 -89.74 C27.29 -97.94, 26.35 -106.85, 24.91 -113.46" stroke="#2f9e44" stroke-width="4" fill="none"></path></g><g transform="translate(1239.0292271767935 325.04620289692963) rotate(0 12.4178816396103 -58.04458267547807)"><path d="M13.15 -91.51 C14.43 -98.6, 18.39 -100.61, 25.21 -113.22 M11.94 -93.02 C16.36 -99.93, 21.27 -107.7, 24.91 -113.46" stroke="#2f9e44" stroke-width="4" fill="none"></path></g></g><mask id="mask-Gzw17qWKpGjgoiv5WhymJ"><rect x="0" y="0" fill="#fff" width="1363.864990456014" height="541.1353682478857"></rect><rect x="1198.712733816404" y="255.00162022145156" fill="#000" width="105.46875" height="24" opacity="1"></rect></mask><g transform="translate(1198.712733816404 255.00162022145156) rotate(0 53.26726856976734 11.705506245791923)"><text x="52.734375" y="0" font-family="Cascadia, Segoe UI Emoji" font-size="20px" fill="#2f9e44" text-anchor="middle" style="white-space: pre;" direction="ltr" dominant-baseline="text-before-edge">__proto__</text></g><g stroke-linecap="round" transform="translate(552.3142593919717 321.6599361045827) rotate(0 87.783203125 40.21484375)"><path d="M2.88 7.8 C2.88 7.8, 2.88 7.8, 2.88 7.8 M2.88 7.8 C2.88 7.8, 2.88 7.8, 2.88 7.8 M10.36 23.58 C17.55 16.5, 20.97 9.58, 26.1 5.47 M10.36 23.58 C17.59 17.95, 20.26 11.39, 26.1 5.47 M9.97 48.42 C25.87 35.22, 37.72 18.33, 47.36 5.4 M9.97 48.42 C19.41 40.05, 27.68 29.95, 47.36 5.4 M6.95 76.27 C25.15 52.9, 45.03 27.3, 68.62 5.33 M6.95 76.27 C21.57 59.1, 38.05 37.18, 68.62 5.33 M22.31 82.99 C42.56 62.39, 57.92 38.09, 89.88 5.26 M22.31 82.99 C50.4 50.12, 76.46 22.31, 89.88 5.26 M43.57 82.93 C68.11 58.77, 89.83 31.86, 111.14 5.19 M43.57 82.93 C68.93 55.07, 96.34 23.27, 111.14 5.19 M64.83 82.86 C88.95 53.4, 108.91 26.96, 132.4 5.12 M64.83 82.86 C81.24 61.31, 96.74 44.43, 132.4 5.12 M86.09 82.79 C103.57 65.85, 118.88 41.5, 156.95 1.28 M86.09 82.79 C109.39 54.23, 136.48 22.61, 156.95 1.28 M107.35 82.72 C131.22 61.45, 151.45 37.58, 172.96 7.25 M107.35 82.72 C125.14 64.29, 139.58 42.07, 172.96 7.25 M128.61 82.65 C149.19 62.52, 168.04 42.65, 181.75 21.52 M128.61 82.65 C143.26 64.41, 156.54 48.58, 181.75 21.52 M149.87 82.58 C160.91 68.74, 177.75 53.73, 182.02 45.6 M149.87 82.58 C160.72 68.89, 176.13 54.14, 182.02 45.6" stroke="#b2f2bb" stroke-width="2" fill="none"></path><path d="M20.11 0 C59.55 5.69, 93.68 0.04, 155.46 0 M20.11 0 C59.01 1.74, 96.76 0.75, 155.46 0 M155.46 0 C167.46 -3.87, 176.95 3.88, 175.57 20.11 M155.46 0 C167.09 1.51, 176.01 4.44, 175.57 20.11 M175.57 20.11 C174.7 30.28, 177.67 40.76, 175.57 60.32 M175.57 20.11 C173.79 29.88, 173.8 42.56, 175.57 60.32 M175.57 60.32 C176.57 71.92, 166.14 77.35, 155.46 80.43 M175.57 60.32 C177.21 70.1, 171.76 84.1, 155.46 80.43 M155.46 80.43 C107.98 80.78, 59.92 78.66, 20.11 80.43 M155.46 80.43 C114.7 78.99, 70.58 79.87, 20.11 80.43 M20.11 80.43 C7.38 80.04, 3.66 76.77, 0 60.32 M20.11 80.43 C2.41 78.53, -3.94 78.32, 0 60.32 M0 60.32 C-3.46 48.7, -2.5 33.73, 0 20.11 M0 60.32 C-1.15 50.17, -0.5 34.8, 0 20.11 M0 20.11 C-3.08 7.54, 5.92 -3.16, 20.11 0 M0 20.11 C0.64 2.66, 9.61 -3.5, 20.11 0" stroke="#1e1e1e" stroke-width="4" fill="none"></path></g><g transform="translate(604.9412125169717 349.8747798545827) rotate(0 35.15625 12)"><text x="35.15625" y="0" font-family="Cascadia, Segoe UI Emoji" font-size="20px" fill="#1e1e1e" text-anchor="middle" style="white-space: pre;" direction="ltr" dominant-baseline="text-before-edge">Object</text></g><g mask="url(#mask-_wJN3Psr2CAWdN8tgHwM3)" stroke-linecap="round"><g transform="translate(735.5798843919717 368.6696435102174) rotate(0 119.98171723602172 16.1897495180273)"><path d="M0.89 0.01 C41.68 5.33, 202.55 28.3, 241.97 34.03 M-2.07 -2.45 C38.78 1.87, 200 24.52, 240.82 29.91" stroke="#1e1e1e" stroke-width="4" fill="none"></path></g><g transform="translate(735.5798843919717 368.6696435102174) rotate(0 119.98171723602172 16.1897495180273)"><path d="M216.4 36.65 C222.45 32.26, 227.61 33.52, 240.73 28.57 M215.76 34.41 C225.39 32.33, 235.89 31.18, 241.21 29.91" stroke="#1e1e1e" stroke-width="4" fill="none"></path></g><g transform="translate(735.5798843919717 368.6696435102174) rotate(0 119.98171723602172 16.1897495180273)"><path d="M218.71 19.7 C224.42 18.73, 229.12 23.41, 240.73 28.57 M218.06 17.47 C226.81 22.04, 236.4 27.53, 241.21 29.91" stroke="#1e1e1e" stroke-width="4" fill="none"></path></g></g><mask id="mask-_wJN3Psr2CAWdN8tgHwM3"><rect x="0" y="0" fill="#fff" width="1075.5433188640152" height="501.049142546272"></rect><rect x="802.8272266279935" y="372.85939302824465" fill="#000" width="105.46875" height="24" opacity="1"></rect></mask><g transform="translate(802.8272266279937 372.85939302824465) rotate(0 52.70371975414457 11.600627311542667)"><text x="52.734375" y="0" font-family="Cascadia, Segoe UI Emoji" font-size="20px" fill="#1e1e1e" text-anchor="middle" style="white-space: pre;" direction="ltr" dominant-baseline="text-before-edge">prototype</text></g><g mask="url(#mask-79QQZQ1Vk7oC9H2ogLCz3)" stroke-linecap="round"><g transform="translate(631.9476806745513 412.5466548545827) rotate(0 -31.91949507215236 44.639384266820855)"><path d="M-0.67 0.52 C-11.63 14.72, -53.69 72.79, -63.87 87.83 M4.17 -1.67 C-7.34 14.09, -55.03 76.06, -66.13 90.67" stroke="#2f9e44" stroke-width="4" fill="none"></path></g><g transform="translate(631.9476806745513 412.5466548545827) rotate(0 -31.91949507215236 44.639384266820855)"><path d="M-58.28 66.79 C-62.22 77.04, -62.89 82.99, -65.37 89.39 M-58.68 67.51 C-59.82 71.28, -62.36 77, -66.17 90.57" stroke="#2f9e44" stroke-width="4" fill="none"></path></g><g transform="translate(631.9476806745513 412.5466548545827) rotate(0 -31.91949507215236 44.639384266820855)"><path d="M-44.7 77.18 C-53.72 83.58, -59.4 85.7, -65.37 89.39 M-45.1 77.9 C-49.09 79.36, -54.57 82.84, -66.17 90.57" stroke="#2f9e44" stroke-width="4" fill="none"></path></g></g><mask id="mask-79QQZQ1Vk7oC9H2ogLCz3"><rect x="0" y="0" fill="#fff" width="795.786670818856" height="601.8254233882244"></rect><rect x="547.2938106023989" y="445.1860391214036" fill="#000" width="105.46875" height="24" opacity="1"></rect></mask><g transform="translate(547.2938106023989 445.1860391214036) rotate(0 53.672813792377724 11.85894686445593)"><text x="52.734375" y="0" font-family="Cascadia, Segoe UI Emoji" font-size="20px" fill="#2f9e44" text-anchor="middle" style="white-space: pre;" direction="ltr" dominant-baseline="text-before-edge">__proto__</text></g><g mask="url(#mask-7dfEjs15fgE3Fj1PT3A-w)" stroke-linecap="round"><g transform="translate(271.89481285562374 234.16835597223042) rotate(0 89.74054999514141 136.50417300985754)"><path d="M0.78 1.87 C30.97 47.58, 151.71 226.14, 181.21 271.68 M-2.25 0.41 C27.72 46.73, 148.92 229.53, 179.92 274.59" stroke="#2f9e44" stroke-width="4" fill="none"></path></g><g transform="translate(271.89481285562374 234.16835597223042) rotate(0 89.74054999514141 136.50417300985754)"><path d="M161.04 261.12 C164.75 263.08, 173.34 269.03, 179.16 274.44 M160.59 260.49 C163.28 263.14, 168.33 266.51, 179.61 274.19" stroke="#2f9e44" stroke-width="4" fill="none"></path></g><g transform="translate(271.89481285562374 234.16835597223042) rotate(0 89.74054999514141 136.50417300985754)"><path d="M175.23 251.57 C174.54 256.47, 178.84 265.31, 179.16 274.44 M174.77 250.94 C174.44 255.56, 176.5 260.95, 179.61 274.19" stroke="#2f9e44" stroke-width="4" fill="none"></path></g></g><mask id="mask-7dfEjs15fgE3Fj1PT3A-w"><rect x="0" y="0" fill="#fff" width="551.3759128459066" height="607.1767019919455"></rect><rect x="308.9009878507652" y="358.6725289820879" fill="#000" width="105.46875" height="24" opacity="1"></rect></mask><g transform="translate(308.9009878507652 358.67252898208795) rotate(0 52.478640990182726 12.998004214614582)"><text x="52.734375" y="0" font-family="Cascadia, Segoe UI Emoji" font-size="20px" fill="#2f9e44" text-anchor="middle" style="white-space: pre;" direction="ltr" dominant-baseline="text-before-edge">__proto__</text></g><g mask="url(#mask-jPvVxOTemTGynj6RWUZcR)" stroke-linecap="round"><g transform="translate(956.5612419900342 429.76493982651516) rotate(0 -109.09554195143528 -11.615759185480329)"><path d="M0.92 -2.1 C-35.25 -5.9, -179.64 -18.39, -216.05 -21.77 M-2.03 2.93 C-38.46 -1.79, -180.97 -20.92, -217.13 -25.99" stroke="#e03131" stroke-width="4" fill="none"></path></g><g transform="translate(956.5612419900342 429.76493982651516) rotate(0 -109.09554195143528 -11.615759185480329)"><path d="M-194.2 -29.75 C-199.78 -28.98, -208.39 -27.03, -218.45 -27.45 M-193.07 -31.21 C-199.55 -29.18, -205.34 -28.68, -216.7 -25.68" stroke="#e03131" stroke-width="4" fill="none"></path></g><g transform="translate(956.5612419900342 429.76493982651516) rotate(0 -109.09554195143528 -11.615759185480329)"><path d="M-196.51 -12.81 C-201.38 -17.69, -209.22 -21.39, -218.45 -27.45 M-195.39 -14.27 C-201.21 -16.49, -206.42 -20.23, -216.7 -25.68" stroke="#e03131" stroke-width="4" fill="none"></path></g></g><mask id="mask-jPvVxOTemTGynj6RWUZcR"><rect x="0" y="0" fill="#fff" width="1274.7523258929048" height="552.9964581974758"></rect><rect x="783.0125750385992" y="406.14918064103483" fill="#000" width="128.90625" height="24" opacity="1"></rect></mask><g transform="translate(783.0125750385989 406.14918064103483) rotate(0 65.4425299962611 12.08341161355375)"><text x="64.453125" y="0" font-family="Cascadia, Segoe UI Emoji" font-size="20px" fill="#e03131" text-anchor="middle" style="white-space: pre;" direction="ltr" dominant-baseline="text-before-edge">constructor</text></g><g mask="url(#mask-rCEgg9j-iGdxPK9N07fFA)" stroke-linecap="round"><g transform="translate(515.4111539951308 213.03187209743157) rotate(0 -115.51150411902523 -0.981224154871029)"><path d="M1.4 -2.34 C-37.07 -2.77, -189.41 -3.73, -228.47 -3.39 M-1.28 2.56 C-40.1 2.56, -191.67 0.71, -229.32 -0.53" stroke="#e03131" stroke-width="4" fill="none"></path></g><g transform="translate(515.4111539951308 213.03187209743157) rotate(0 -115.51150411902523 -0.981224154871029)"><path d="M-207.33 -6.77 C-215.78 -6.78, -222.64 -2.88, -227.48 -1.87 M-206.45 -9.41 C-211.2 -7.46, -214.71 -5.43, -229.65 -0.51" stroke="#e03131" stroke-width="4" fill="none"></path></g><g transform="translate(515.4111539951308 213.03187209743157) rotate(0 -115.51150411902523 -0.981224154871029)"><path d="M-207.68 10.33 C-215.95 3.76, -222.67 1.1, -227.48 -1.87 M-206.8 7.69 C-211.64 6.21, -215.08 4.8, -229.65 -0.51" stroke="#e03131" stroke-width="4" fill="none"></path></g></g><mask id="mask-rCEgg9j-iGdxPK9N07fFA"><rect x="0" y="0" fill="#fff" width="846.4341622331813" height="314.99432040717363"></rect><rect x="335.4465248761056" y="200.05064794256054" fill="#000" width="128.90625" height="24" opacity="1"></rect></mask><g transform="translate(335.4465248761055 200.05064794256054) rotate(0 66.00452159158891 12.532014121802135)"><text x="64.453125" y="0" font-family="Cascadia, Segoe UI Emoji" font-size="20px" fill="#e03131" text-anchor="middle" style="white-space: pre;" direction="ltr" dominant-baseline="text-before-edge">constructor</text></g><g mask="url(#mask-AIr1sFezNd1430vXGIijz)" stroke-linecap="round"><g transform="translate(357.3856948560773 551.0635934505016) rotate(0 -104.05122059188716 -1.0883296083957248)"><path d="M2.64 -0.72 C-32.12 -1.19, -172.69 -0.39, -208.16 -0.24 M0.63 -3.57 C-34.55 -3.62, -176.25 -4.12, -210.42 -4.2" stroke="#e03131" stroke-width="4" fill="none"></path></g><g transform="translate(357.3856948560773 551.0635934505016) rotate(0 -104.05122059188716 -1.0883296083957248)"><path d="M-187.42 -12.72 C-192.85 -11.24, -199.97 -5.6, -209.15 -2.86 M-186.42 -13.17 C-193.21 -11.41, -198.11 -7.95, -211.17 -3.94" stroke="#e03131" stroke-width="4" fill="none"></path></g><g transform="translate(357.3856948560773 551.0635934505016) rotate(0 -104.05122059188716 -1.0883296083957248)"><path d="M-187.47 4.38 C-193.05 0.47, -200.15 0.73, -209.15 -2.86 M-186.47 3.93 C-193.23 1.3, -198.12 0.37, -211.17 -3.94" stroke="#e03131" stroke-width="4" fill="none"></path></g></g><mask id="mask-AIr1sFezNd1430vXGIijz"><rect x="0" y="0" fill="#fff" width="665.4881360398516" height="653.240252667293"></rect><rect x="188.88134926419013" y="537.975263842106" fill="#000" width="128.90625" height="24" opacity="1"></rect></mask><g transform="translate(188.88134926419013 537.975263842106) rotate(0 64.61125034086405 10.865412253260558)"><text x="64.453125" y="0" font-family="Cascadia, Segoe UI Emoji" font-size="20px" fill="#e03131" text-anchor="middle" style="white-space: pre;" direction="ltr" dominant-baseline="text-before-edge">constructor</text></g><g mask="url(#mask-RSyC684VXWHHVkR04KFzD)" stroke-linecap="round"><g transform="translate(422.89968226686767 817.7216225805936) rotate(0 -120.62492577117001 -3.3029939861152116)"><path d="M1.78 0.72 C-38.13 -0.48, -199.47 -4.58, -239.57 -6.12 M-0.7 -1.36 C-40.82 -3.57, -201.14 -10.02, -240.9 -10.87" stroke="#e03131" stroke-width="4" fill="none"></path></g><g transform="translate(422.89968226686767 817.7216225805936) rotate(0 -120.62492577117001 -3.3029939861152116)"><path d="M-216.63 -17.45 C-223.81 -14.45, -232.55 -13.58, -239.84 -12.51 M-217.19 -19.18 C-223.25 -15.51, -230.51 -14.3, -241.5 -11.74" stroke="#e03131" stroke-width="4" fill="none"></path></g><g transform="translate(422.89968226686767 817.7216225805936) rotate(0 -120.62492577117001 -3.3029939861152116)"><path d="M-217.18 -0.36 C-224.26 -2.42, -232.84 -6.63, -239.84 -12.51 M-217.74 -2.09 C-223.49 -3.36, -230.59 -7.08, -241.5 -11.74" stroke="#e03131" stroke-width="4" fill="none"></path></g></g><mask id="mask-RSyC684VXWHHVkR04KFzD"><rect x="0" y="0" fill="#fff" width="764.1495338092077" height="924.327610552824"></rect><rect x="237.8216314956976" y="802.4186285944784" fill="#000" width="128.90625" height="24" opacity="1"></rect></mask><g transform="translate(237.8216314956976 802.4186285944783) rotate(0 65.51778055898848 10.228487931564473)"><text x="64.453125" y="0" font-family="Cascadia, Segoe UI Emoji" font-size="20px" fill="#e03131" text-anchor="middle" style="white-space: pre;" direction="ltr" dominant-baseline="text-before-edge">constructor</text></g></svg>